<svg width="100" height="100" viewBox="0 0 100 100" fill="none" xmlns="http://www.w3.org/2000/svg">
<rect width="100" height="100" rx="25" fill="black"/>
<path d="M26.982 70C24.8255 70 22.9386 69.6175 21.3213 68.8525C19.704 68.0874 18.3947 67.0128 17.3935 65.6284L16.5848 69.3443H10V30H17.3935V46.1202C18.3177 44.918 19.5307 43.8616 21.0325 42.9508C22.5728 42.0401 24.556 41.5847 26.982 41.5847C29.6775 41.5847 32.0842 42.204 34.2022 43.4426C36.3201 44.6812 37.9952 46.3752 39.2274 48.5246C40.4597 50.674 41.0758 53.1148 41.0758 55.847C41.0758 58.5792 40.4597 61.02 39.2274 63.1694C37.9952 65.2823 36.3201 66.9581 34.2022 68.1967C32.0842 69.3989 29.6775 70 26.982 70ZM25.4224 63.8798C27.7714 63.8798 29.716 63.133 31.2563 61.6393C32.7966 60.1457 33.5668 58.2149 33.5668 55.847C33.5668 53.4791 32.7966 51.5301 31.2563 50C29.716 48.4699 27.7714 47.7049 25.4224 47.7049C23.0349 47.7049 21.071 48.4699 19.5307 50C18.0289 51.4936 17.278 53.4244 17.278 55.7923C17.278 58.1603 18.0289 60.1093 19.5307 61.6393C21.071 63.133 23.0349 63.8798 25.4224 63.8798Z" fill="white"/>
<path d="M61.6011 70C58.713 70 56.1522 69.4171 53.9188 68.2514C51.6853 67.0856 49.9332 65.4463 48.6625 63.3333C47.3917 61.2204 46.7563 58.7796 46.7563 56.0109C46.7563 53.2058 47.3724 50.7104 48.6047 48.5246C49.8755 46.3388 51.6083 44.6448 53.8032 43.4426C56.0367 42.204 58.6552 41.5847 61.6588 41.5847C64.4699 41.5847 66.9537 42.1676 69.1101 43.3333C71.2665 44.4991 72.9416 46.102 74.1354 48.1421C75.3676 50.1457 75.9838 52.3862 75.9838 54.8634C75.9838 55.2641 75.9645 55.6831 75.926 56.1202C75.926 56.5574 75.9067 57.0128 75.8682 57.4863H54.0921C54.2461 59.5993 55.0162 61.2568 56.4025 62.459C57.8273 63.6612 59.5409 64.2623 61.5433 64.2623C63.0451 64.2623 64.2966 63.9526 65.2978 63.3333C66.3375 62.6776 67.1077 61.8397 67.6083 60.8197H75.1173C74.5782 62.5319 73.6733 64.0984 72.4025 65.5191C71.1703 66.9035 69.63 67.9964 67.7816 68.7978C65.9717 69.5993 63.9116 70 61.6011 70ZM61.6588 47.2678C59.849 47.2678 58.2509 47.7596 56.8646 48.7432C55.4783 49.6903 54.5927 51.1475 54.2076 53.1148H68.4747C68.3592 51.3297 67.6661 49.9089 66.3953 48.8525C65.1245 47.796 63.5457 47.2678 61.6588 47.2678Z" fill="white"/>
<path d="M85.3791 69.7268C84.0313 69.7268 82.9146 69.326 82.0289 68.5246C81.1817 67.7231 80.7581 66.7577 80.7581 65.6284C80.7581 64.4627 81.1817 63.4791 82.0289 62.6776C82.9146 61.8761 84.0313 61.4754 85.3791 61.4754C86.7268 61.4754 87.8243 61.8761 88.6715 62.6776C89.5572 63.4791 90 64.4627 90 65.6284C90 66.7577 89.5572 67.7231 88.6715 68.5246C87.8243 69.326 86.7268 69.7268 85.3791 69.7268ZM85.3791 49.8361C84.0313 49.8361 82.9146 49.4353 82.0289 48.6339C81.1817 47.8324 80.7581 46.867 80.7581 45.7377C80.7581 44.5719 81.1817 43.5883 82.0289 42.7869C82.9146 41.9854 84.0313 41.5847 85.3791 41.5847C86.7268 41.5847 87.8243 41.9854 88.6715 42.7869C89.5572 43.5883 90 44.5719 90 45.7377C90 46.867 89.5572 47.8324 88.6715 48.6339C87.8243 49.4353 86.7268 49.8361 85.3791 49.8361Z" fill="white"/>
<path d="M26.982 70C24.8255 70 22.9386 69.6175 21.3213 68.8525C19.704 68.0874 18.3947 67.0128 17.3935 65.6284L16.5848 69.3443H10V30H17.3935V46.1202C18.3177 44.918 19.5307 43.8616 21.0325 42.9508C22.5728 42.0401 24.556 41.5847 26.982 41.5847C29.6775 41.5847 32.0842 42.204 34.2022 43.4426C36.3201 44.6812 37.9952 46.3752 39.2274 48.5246C40.4597 50.674 41.0758 53.1148 41.0758 55.847C41.0758 58.5792 40.4597 61.02 39.2274 63.1694C37.9952 65.2823 36.3201 66.9581 34.2022 68.1967C32.0842 69.3989 29.6775 70 26.982 70ZM25.4224 63.8798C27.7714 63.8798 29.716 63.133 31.2563 61.6393C32.7966 60.1457 33.5668 58.2149 33.5668 55.847C33.5668 53.4791 32.7966 51.5301 31.2563 50C29.716 48.4699 27.7714 47.7049 25.4224 47.7049C23.0349 47.7049 21.071 48.4699 19.5307 50C18.0289 51.4936 17.278 53.4244 17.278 55.7923C17.278 58.1603 18.0289 60.1093 19.5307 61.6393C21.071 63.133 23.0349 63.8798 25.4224 63.8798Z" stroke="white" stroke-width="2"/>
<path d="M61.6011 70C58.713 70 56.1522 69.4171 53.9188 68.2514C51.6853 67.0856 49.9332 65.4463 48.6625 63.3333C47.3917 61.2204 46.7563 58.7796 46.7563 56.0109C46.7563 53.2058 47.3724 50.7104 48.6047 48.5246C49.8755 46.3388 51.6083 44.6448 53.8032 43.4426C56.0367 42.204 58.6552 41.5847 61.6588 41.5847C64.4699 41.5847 66.9537 42.1676 69.1101 43.3333C71.2665 44.4991 72.9416 46.102 74.1354 48.1421C75.3676 50.1457 75.9838 52.3862 75.9838 54.8634C75.9838 55.2641 75.9645 55.6831 75.926 56.1202C75.926 56.5574 75.9067 57.0128 75.8682 57.4863H54.0921C54.2461 59.5993 55.0162 61.2568 56.4025 62.459C57.8273 63.6612 59.5409 64.2623 61.5433 64.2623C63.0451 64.2623 64.2966 63.9526 65.2978 63.3333C66.3375 62.6776 67.1077 61.8397 67.6083 60.8197H75.1173C74.5782 62.5319 73.6733 64.0984 72.4025 65.5191C71.1703 66.9035 69.63 67.9964 67.7816 68.7978C65.9717 69.5993 63.9116 70 61.6011 70ZM61.6588 47.2678C59.849 47.2678 58.2509 47.7596 56.8646 48.7432C55.4783 49.6903 54.5927 51.1475 54.2076 53.1148H68.4747C68.3592 51.3297 67.6661 49.9089 66.3953 48.8525C65.1245 47.796 63.5457 47.2678 61.6588 47.2678Z" stroke="white" stroke-width="2"/>
<path d="M85.3791 69.7268C84.0313 69.7268 82.9146 69.326 82.0289 68.5246C81.1817 67.7231 80.7581 66.7577 80.7581 65.6284C80.7581 64.4627 81.1817 63.4791 82.0289 62.6776C82.9146 61.8761 84.0313 61.4754 85.3791 61.4754C86.7268 61.4754 87.8243 61.8761 88.6715 62.6776C89.5572 63.4791 90 64.4627 90 65.6284C90 66.7577 89.5572 67.7231 88.6715 68.5246C87.8243 69.326 86.7268 69.7268 85.3791 69.7268ZM85.3791 49.8361C84.0313 49.8361 82.9146 49.4353 82.0289 48.6339C81.1817 47.8324 80.7581 46.867 80.7581 45.7377C80.7581 44.5719 81.1817 43.5883 82.0289 42.7869C82.9146 41.9854 84.0313 41.5847 85.3791 41.5847C86.7268 41.5847 87.8243 41.9854 88.6715 42.7869C89.5572 43.5883 90 44.5719 90 45.7377C90 46.867 89.5572 47.8324 88.6715 48.6339C87.8243 49.4353 86.7268 49.8361 85.3791 49.8361Z" stroke="white" stroke-width="2"/>
</svg>
