<svg width="1007" height="206" viewBox="0 0 1007 206" fill="none" xmlns="http://www.w3.org/2000/svg">
<mask id="path-1-outside-1_14_955" maskUnits="userSpaceOnUse" x="0.194763" y="0" width="1006" height="206" fill="black">
<rect fill="white" x="0.194763" width="1006" height="206"/>
<path d="M84.4399 203C74.123 203 65.0958 201.087 57.3582 197.262C49.6205 193.437 43.3567 188.064 38.5668 181.142L34.698 199.721H3.19476V3H38.5668V83.6011C42.9883 77.5902 48.7915 72.3078 55.9764 67.7541C63.3456 63.2004 72.8334 60.9235 84.4399 60.9235C97.3359 60.9235 108.85 64.02 118.983 70.2131C129.115 76.4062 137.129 84.8761 143.025 95.6229C148.92 106.37 151.868 118.574 151.868 132.235C151.868 145.896 148.92 158.1 143.025 168.847C137.129 179.412 129.115 187.791 118.983 193.984C108.85 199.995 97.3359 203 84.4399 203ZM76.9786 172.399C88.2166 172.399 97.5201 168.665 104.889 161.197C112.258 153.729 115.943 144.075 115.943 132.235C115.943 120.395 112.258 110.65 104.889 103C97.5201 95.3497 88.2166 91.5246 76.9786 91.5246C65.5564 91.5246 56.1607 95.3497 48.7915 103C41.6066 110.468 38.0141 120.122 38.0141 131.962C38.0141 143.801 41.6066 153.546 48.7915 161.197C56.1607 168.665 65.5564 172.399 76.9786 172.399Z"/>
<path d="M250.065 203C236.248 203 223.996 200.086 213.311 194.257C202.626 188.428 194.243 180.231 188.164 169.667C182.084 159.102 179.044 146.898 179.044 133.055C179.044 119.029 181.992 106.552 187.887 95.6229C193.967 84.694 202.257 76.224 212.758 70.2131C223.444 64.02 235.971 60.9235 250.341 60.9235C263.79 60.9235 275.673 63.8379 285.99 69.6667C296.306 75.4954 304.32 83.51 310.031 93.7104C315.927 103.729 318.874 114.931 318.874 127.317C318.874 129.321 318.782 131.415 318.598 133.601C318.598 135.787 318.506 138.064 318.322 140.432H214.14C214.877 150.996 218.562 159.284 225.194 165.295C232.01 171.306 240.209 174.311 249.788 174.311C256.973 174.311 262.961 172.763 267.751 169.667C272.725 166.388 276.41 162.199 278.805 157.098H314.729C312.15 165.659 307.821 173.492 301.741 180.596C295.846 187.517 288.477 192.982 279.634 196.989C270.975 200.996 261.119 203 250.065 203ZM250.341 89.3388C241.682 89.3388 234.037 91.7978 227.405 96.7158C220.772 101.452 216.535 108.738 214.693 118.574H282.95C282.397 109.648 279.081 102.545 273.001 97.2623C266.922 91.98 259.368 89.3388 250.341 89.3388Z"/>
<path d="M363.824 201.634C357.375 201.634 352.033 199.63 347.796 195.623C343.743 191.616 341.716 186.789 341.716 181.142C341.716 175.313 343.743 170.395 347.796 166.388C352.033 162.381 357.375 160.377 363.824 160.377C370.272 160.377 375.522 162.381 379.575 166.388C383.812 170.395 385.931 175.313 385.931 181.142C385.931 186.789 383.812 191.616 379.575 195.623C375.522 199.63 370.272 201.634 363.824 201.634ZM363.824 102.18C357.375 102.18 352.033 100.177 347.796 96.1694C343.743 92.1621 341.716 87.3351 341.716 81.6885C341.716 75.8597 343.743 70.9417 347.796 66.9344C352.033 62.9271 357.375 60.9235 363.824 60.9235C370.272 60.9235 375.522 62.9271 379.575 66.9344C383.812 70.9417 385.931 75.8597 385.931 81.6885C385.931 87.3351 383.812 92.1621 379.575 96.1694C375.522 100.177 370.272 102.18 363.824 102.18Z"/>
<path d="M415.552 199.721V3H450.924V84.9672C455.529 77.4991 461.701 71.6703 469.439 67.4809C477.361 63.1093 486.388 60.9235 496.52 60.9235C513.469 60.9235 526.55 66.2058 535.761 76.7705C545.157 87.3352 549.855 102.818 549.855 123.219V199.721H514.759V126.497C514.759 114.84 512.364 105.914 507.574 99.7213C502.968 93.5282 495.599 90.4317 485.467 90.4317C475.518 90.4317 467.228 93.8925 460.596 100.814C454.148 107.736 450.924 117.39 450.924 129.776V199.721H415.552Z"/>
<path d="M635.079 203C617.945 203 604.681 197.718 595.285 187.153C586.074 176.588 581.468 161.106 581.468 140.705V64.2022H616.564V137.426C616.564 149.084 618.959 158.009 623.749 164.202C628.539 170.395 636.092 173.492 646.409 173.492C656.173 173.492 664.187 170.031 670.451 163.109C676.899 156.188 680.123 146.534 680.123 134.148V64.2022H715.495V199.721H684.268L681.505 176.77C677.267 184.785 671.096 191.16 662.989 195.896C655.068 200.632 645.764 203 635.079 203Z"/>
<path d="M751.806 199.721V64.2022H783.309L786.625 89.612C791.6 80.8688 798.324 73.9472 806.798 68.847C815.457 63.5647 825.59 60.9235 837.196 60.9235V97.8087H827.248C819.51 97.8087 812.602 98.9927 806.522 101.361C800.442 103.729 795.653 107.827 792.152 113.656C788.836 119.485 787.178 127.59 787.178 137.973V199.721H751.806Z"/>
<path d="M921.95 203C909.054 203 897.539 199.903 887.407 193.71C877.274 187.517 869.26 179.047 863.365 168.301C857.469 157.554 854.522 145.35 854.522 131.689C854.522 118.027 857.469 105.914 863.365 95.3497C869.26 84.6029 877.274 76.224 887.407 70.2131C897.539 64.02 909.054 60.9235 921.95 60.9235C932.266 60.9235 941.294 62.8361 949.031 66.6612C956.769 70.4863 963.033 75.8597 967.823 82.7814V3H1003.19V199.721H971.691L967.823 180.322C963.401 186.333 957.506 191.616 950.137 196.169C942.952 200.723 933.556 203 921.95 203ZM929.411 172.399C940.833 172.399 950.137 168.665 957.322 161.197C964.691 153.546 968.375 143.801 968.375 131.962C968.375 120.122 964.691 110.468 957.322 103C950.137 95.3497 940.833 91.5246 929.411 91.5246C918.173 91.5246 908.869 95.2586 901.5 102.727C894.131 110.195 890.446 119.849 890.446 131.689C890.446 143.528 894.131 153.273 901.5 160.923C908.869 168.574 918.173 172.399 929.411 172.399Z"/>
</mask>
<path d="M84.4399 203C74.123 203 65.0958 201.087 57.3582 197.262C49.6205 193.437 43.3567 188.064 38.5668 181.142L34.698 199.721H3.19476V3H38.5668V83.6011C42.9883 77.5902 48.7915 72.3078 55.9764 67.7541C63.3456 63.2004 72.8334 60.9235 84.4399 60.9235C97.3359 60.9235 108.85 64.02 118.983 70.2131C129.115 76.4062 137.129 84.8761 143.025 95.6229C148.92 106.37 151.868 118.574 151.868 132.235C151.868 145.896 148.92 158.1 143.025 168.847C137.129 179.412 129.115 187.791 118.983 193.984C108.85 199.995 97.3359 203 84.4399 203ZM76.9786 172.399C88.2166 172.399 97.5201 168.665 104.889 161.197C112.258 153.729 115.943 144.075 115.943 132.235C115.943 120.395 112.258 110.65 104.889 103C97.5201 95.3497 88.2166 91.5246 76.9786 91.5246C65.5564 91.5246 56.1607 95.3497 48.7915 103C41.6066 110.468 38.0141 120.122 38.0141 131.962C38.0141 143.801 41.6066 153.546 48.7915 161.197C56.1607 168.665 65.5564 172.399 76.9786 172.399Z" stroke="url(#paint0_linear_14_955)" stroke-width="6" mask="url(#path-1-outside-1_14_955)"/>
<path d="M250.065 203C236.248 203 223.996 200.086 213.311 194.257C202.626 188.428 194.243 180.231 188.164 169.667C182.084 159.102 179.044 146.898 179.044 133.055C179.044 119.029 181.992 106.552 187.887 95.6229C193.967 84.694 202.257 76.224 212.758 70.2131C223.444 64.02 235.971 60.9235 250.341 60.9235C263.79 60.9235 275.673 63.8379 285.99 69.6667C296.306 75.4954 304.32 83.51 310.031 93.7104C315.927 103.729 318.874 114.931 318.874 127.317C318.874 129.321 318.782 131.415 318.598 133.601C318.598 135.787 318.506 138.064 318.322 140.432H214.14C214.877 150.996 218.562 159.284 225.194 165.295C232.01 171.306 240.209 174.311 249.788 174.311C256.973 174.311 262.961 172.763 267.751 169.667C272.725 166.388 276.41 162.199 278.805 157.098H314.729C312.15 165.659 307.821 173.492 301.741 180.596C295.846 187.517 288.477 192.982 279.634 196.989C270.975 200.996 261.119 203 250.065 203ZM250.341 89.3388C241.682 89.3388 234.037 91.7978 227.405 96.7158C220.772 101.452 216.535 108.738 214.693 118.574H282.95C282.397 109.648 279.081 102.545 273.001 97.2623C266.922 91.98 259.368 89.3388 250.341 89.3388Z" stroke="url(#paint1_linear_14_955)" stroke-width="6" mask="url(#path-1-outside-1_14_955)"/>
<path d="M363.824 201.634C357.375 201.634 352.033 199.63 347.796 195.623C343.743 191.616 341.716 186.789 341.716 181.142C341.716 175.313 343.743 170.395 347.796 166.388C352.033 162.381 357.375 160.377 363.824 160.377C370.272 160.377 375.522 162.381 379.575 166.388C383.812 170.395 385.931 175.313 385.931 181.142C385.931 186.789 383.812 191.616 379.575 195.623C375.522 199.63 370.272 201.634 363.824 201.634ZM363.824 102.18C357.375 102.18 352.033 100.177 347.796 96.1694C343.743 92.1621 341.716 87.3351 341.716 81.6885C341.716 75.8597 343.743 70.9417 347.796 66.9344C352.033 62.9271 357.375 60.9235 363.824 60.9235C370.272 60.9235 375.522 62.9271 379.575 66.9344C383.812 70.9417 385.931 75.8597 385.931 81.6885C385.931 87.3351 383.812 92.1621 379.575 96.1694C375.522 100.177 370.272 102.18 363.824 102.18Z" stroke="url(#paint2_linear_14_955)" stroke-width="6" mask="url(#path-1-outside-1_14_955)"/>
<path d="M415.552 199.721V3H450.924V84.9672C455.529 77.4991 461.701 71.6703 469.439 67.4809C477.361 63.1093 486.388 60.9235 496.52 60.9235C513.469 60.9235 526.55 66.2058 535.761 76.7705C545.157 87.3352 549.855 102.818 549.855 123.219V199.721H514.759V126.497C514.759 114.84 512.364 105.914 507.574 99.7213C502.968 93.5282 495.599 90.4317 485.467 90.4317C475.518 90.4317 467.228 93.8925 460.596 100.814C454.148 107.736 450.924 117.39 450.924 129.776V199.721H415.552Z" stroke="url(#paint3_linear_14_955)" stroke-width="6" mask="url(#path-1-outside-1_14_955)"/>
<path d="M635.079 203C617.945 203 604.681 197.718 595.285 187.153C586.074 176.588 581.468 161.106 581.468 140.705V64.2022H616.564V137.426C616.564 149.084 618.959 158.009 623.749 164.202C628.539 170.395 636.092 173.492 646.409 173.492C656.173 173.492 664.187 170.031 670.451 163.109C676.899 156.188 680.123 146.534 680.123 134.148V64.2022H715.495V199.721H684.268L681.505 176.77C677.267 184.785 671.096 191.16 662.989 195.896C655.068 200.632 645.764 203 635.079 203Z" stroke="url(#paint4_linear_14_955)" stroke-width="6" mask="url(#path-1-outside-1_14_955)"/>
<path d="M751.806 199.721V64.2022H783.309L786.625 89.612C791.6 80.8688 798.324 73.9472 806.798 68.847C815.457 63.5647 825.59 60.9235 837.196 60.9235V97.8087H827.248C819.51 97.8087 812.602 98.9927 806.522 101.361C800.442 103.729 795.653 107.827 792.152 113.656C788.836 119.485 787.178 127.59 787.178 137.973V199.721H751.806Z" stroke="url(#paint5_linear_14_955)" stroke-width="6" mask="url(#path-1-outside-1_14_955)"/>
<path d="M921.95 203C909.054 203 897.539 199.903 887.407 193.71C877.274 187.517 869.26 179.047 863.365 168.301C857.469 157.554 854.522 145.35 854.522 131.689C854.522 118.027 857.469 105.914 863.365 95.3497C869.26 84.6029 877.274 76.224 887.407 70.2131C897.539 64.02 909.054 60.9235 921.95 60.9235C932.266 60.9235 941.294 62.8361 949.031 66.6612C956.769 70.4863 963.033 75.8597 967.823 82.7814V3H1003.19V199.721H971.691L967.823 180.322C963.401 186.333 957.506 191.616 950.137 196.169C942.952 200.723 933.556 203 921.95 203ZM929.411 172.399C940.833 172.399 950.137 168.665 957.322 161.197C964.691 153.546 968.375 143.801 968.375 131.962C968.375 120.122 964.691 110.468 957.322 103C950.137 95.3497 940.833 91.5246 929.411 91.5246C918.173 91.5246 908.869 95.2586 901.5 102.727C894.131 110.195 890.446 119.849 890.446 131.689C890.446 143.528 894.131 153.273 901.5 160.923C908.869 168.574 918.173 172.399 929.411 172.399Z" stroke="url(#paint6_linear_14_955)" stroke-width="6" mask="url(#path-1-outside-1_14_955)"/>
<defs>
<linearGradient id="paint0_linear_14_955" x1="503.195" y1="3" x2="503.195" y2="203" gradientUnits="userSpaceOnUse">
<stop stop-color="#05BEFE"/>
<stop offset="1" stop-color="#8F00FF"/>
</linearGradient>
<linearGradient id="paint1_linear_14_955" x1="503.195" y1="3" x2="503.195" y2="203" gradientUnits="userSpaceOnUse">
<stop stop-color="#05BEFE"/>
<stop offset="1" stop-color="#8F00FF"/>
</linearGradient>
<linearGradient id="paint2_linear_14_955" x1="503.195" y1="3" x2="503.195" y2="203" gradientUnits="userSpaceOnUse">
<stop stop-color="#05BEFE"/>
<stop offset="1" stop-color="#8F00FF"/>
</linearGradient>
<linearGradient id="paint3_linear_14_955" x1="503.195" y1="3" x2="503.195" y2="203" gradientUnits="userSpaceOnUse">
<stop stop-color="#05BEFE"/>
<stop offset="1" stop-color="#8F00FF"/>
</linearGradient>
<linearGradient id="paint4_linear_14_955" x1="503.195" y1="3" x2="503.195" y2="203" gradientUnits="userSpaceOnUse">
<stop stop-color="#05BEFE"/>
<stop offset="1" stop-color="#8F00FF"/>
</linearGradient>
<linearGradient id="paint5_linear_14_955" x1="503.195" y1="3" x2="503.195" y2="203" gradientUnits="userSpaceOnUse">
<stop stop-color="#05BEFE"/>
<stop offset="1" stop-color="#8F00FF"/>
</linearGradient>
<linearGradient id="paint6_linear_14_955" x1="503.195" y1="3" x2="503.195" y2="203" gradientUnits="userSpaceOnUse">
<stop stop-color="#05BEFE"/>
<stop offset="1" stop-color="#8F00FF"/>
</linearGradient>
</defs>
</svg>
